<svg width="18" height="18" viewBox="0 0 28 28" fill="none" xmlns="http://www.w3.org/2000/svg">
<path d="M14.0001 0.666626C6.66675 0.666626 0.666748 6.66663 0.666748 14C0.666748 17.0666 1.73342 20 3.73342 22.4L1.06675 25.0666C0.533415 25.6 0.533415 26.4 1.06675 26.9333C1.33341 27.2 1.60008 27.3333 2.00008 27.3333H14.0001C21.3334 27.3333 27.3334 21.3333 27.3334 14C27.3334 6.66663 21.3334 0.666626 14.0001 0.666626ZM15.3334 18H7.33342C6.53341 18 6.00008 17.4666 6.00008 16.6666C6.00008 15.8666 6.53341 15.3333 7.33342 15.3333H15.3334C16.1334 15.3333 16.6667 15.8666 16.6667 16.6666C16.6667 17.4666 16.1334 18 15.3334 18ZM20.6667 12.6666H7.33342C6.53341 12.6666 6.00008 12.1333 6.00008 11.3333C6.00008 10.5333 6.53341 9.99996 7.33342 9.99996H20.6667C21.4667 9.99996 22.0001 10.5333 22.0001 11.3333C22.0001 12.1333 21.4667 12.6666 20.6667 12.6666Z" fill="#9A9A9A"/>
</svg>
