<svg width="19" height="19" viewBox="0 0 24 24" fill="none" xmlns="http://www.w3.org/2000/svg">
<path d="M18.7 14.1001C18.5 14.0001 18.2 14.0001 18 14.0001C16.8 14.0001 15.7 14.5001 14.9 15.5001L9.8 13.2001C10 12.5001 10 11.7001 9.8 10.9001L14.9 8.60005C16.3 10.3001 18.8 10.5001 20.5 9.10005C22.2 7.70005 22.4 5.20005 21 3.50005C19.6 1.80005 17.1 1.60005 15.4 3.00005C14.5 3.70005 14 4.80005 14 6.00005C14 6.20005 14 6.50005 14.1 6.70005L8.8 9.10005C7.2 7.60005 4.7 7.60005 3.1 9.20005C1.6 10.8001 1.6 13.3001 3.2 14.9001C4.8 16.4001 7.2 16.4001 8.8 14.9001L14.1 17.3001C13.7 19.5001 15.1 21.6001 17.3 21.9001C19.5 22.3001 21.6 20.9001 21.9 18.7001C22.3 16.5001 20.9 14.5001 18.7 14.1001Z" fill="#B4B4B4"/>
</svg>
