<svg width="50" height="50" viewBox="0 0 60 60" fill="none" xmlns="http://www.w3.org/2000/svg">
<rect width="60" height="60" fill="#E1F7E3"/>
<path opacity="0.2" d="M19.6407 38.5021C19.6719 38.6335 19.7294 38.7573 19.8096 38.866C19.8899 38.9746 19.9913 39.0659 20.1078 39.1344C20.2242 39.2029 20.3533 39.247 20.4873 39.2643C20.6213 39.2816 20.7574 39.2715 20.8874 39.2348C26.8486 37.5889 33.1442 37.5883 39.1057 39.2331C39.2357 39.2698 39.3717 39.2798 39.5056 39.2625C39.6396 39.2453 39.7686 39.2011 39.8851 39.1327C40.0015 39.0643 40.1029 38.973 40.1832 38.8644C40.2634 38.7558 40.3209 38.6321 40.3521 38.5007L43.5382 24.9611C43.5808 24.7798 43.572 24.5902 43.5128 24.4137C43.4535 24.2372 43.3461 24.0807 43.2027 23.9619C43.0593 23.8431 42.8856 23.7667 42.7012 23.7413C42.5167 23.7159 42.3288 23.7426 42.1586 23.8182L35.8357 26.6284C35.6073 26.7299 35.3493 26.7422 35.1124 26.663C34.8754 26.5837 34.6767 26.4186 34.5554 26.2002L30.8738 19.5734C30.7872 19.4175 30.6605 19.2877 30.5068 19.1972C30.3531 19.1068 30.178 19.0591 29.9997 19.0591C29.8213 19.0591 29.6462 19.1068 29.4925 19.1972C29.3388 19.2877 29.2121 19.4175 29.1255 19.5734L25.444 26.2002C25.3226 26.4186 25.1239 26.5837 24.887 26.663C24.65 26.7422 24.392 26.7299 24.1637 26.6284L17.8397 23.8178C17.6696 23.7422 17.4818 23.7155 17.2973 23.7409C17.1129 23.7663 16.9392 23.8426 16.7958 23.9614C16.6524 24.0801 16.545 24.2365 16.4857 24.413C16.4264 24.5895 16.4175 24.779 16.4601 24.9602L19.6407 38.5021Z" fill="#23BD33"/>
<path d="M19.6407 38.5021C19.6719 38.6335 19.7294 38.7573 19.8096 38.866C19.8899 38.9746 19.9913 39.0659 20.1078 39.1344C20.2242 39.2029 20.3533 39.247 20.4873 39.2643C20.6213 39.2816 20.7574 39.2715 20.8874 39.2348C26.8486 37.5889 33.1442 37.5883 39.1057 39.2331C39.2357 39.2698 39.3717 39.2798 39.5056 39.2625C39.6396 39.2453 39.7686 39.2011 39.8851 39.1327C40.0015 39.0643 40.1029 38.973 40.1832 38.8644C40.2634 38.7558 40.3209 38.6321 40.3521 38.5007L43.5382 24.9611C43.5808 24.7798 43.572 24.5902 43.5128 24.4137C43.4535 24.2372 43.3461 24.0807 43.2027 23.9619C43.0593 23.8431 42.8856 23.7667 42.7012 23.7413C42.5167 23.7159 42.3288 23.7426 42.1586 23.8182L35.8357 26.6284C35.6073 26.7299 35.3493 26.7422 35.1124 26.663C34.8754 26.5837 34.6767 26.4186 34.5554 26.2002L30.8738 19.5734C30.7872 19.4175 30.6605 19.2877 30.5068 19.1972C30.3531 19.1068 30.178 19.0591 29.9997 19.0591C29.8213 19.0591 29.6462 19.1068 29.4925 19.1972C29.3388 19.2877 29.2121 19.4175 29.1255 19.5734L25.444 26.2002C25.3226 26.4186 25.1239 26.5837 24.887 26.663C24.65 26.7422 24.392 26.7299 24.1637 26.6284L17.8397 23.8178C17.6696 23.7422 17.4818 23.7155 17.2973 23.7409C17.1129 23.7663 16.9392 23.8426 16.7958 23.9614C16.6524 24.0801 16.545 24.2365 16.4857 24.413C16.4264 24.5895 16.4175 24.779 16.4601 24.9602L19.6407 38.5021Z" stroke="#23BD33" stroke-width="2" stroke-linecap="round" stroke-linejoin="round"/>
<path d="M26 34.2098C28.6593 33.9301 31.3407 33.9301 34 34.2098" stroke="#23BD33" stroke-width="2" stroke-linecap="round" stroke-linejoin="round"/>
</svg>
