<svg width="30" height="30" viewBox="0 0 40 40" fill="none" xmlns="http://www.w3.org/2000/svg">
<g clip-path="url(#clip0_660_3866)">
<path d="M19.9985 6.24854C12.4167 6.24854 6.24854 12.4167 6.24854 19.9985C6.24854 27.5804 12.4167 33.7485 19.9985 33.7485C27.5804 33.7485 33.7485 27.5804 33.7485 19.9985C33.7485 12.4167 27.5804 6.24854 19.9985 6.24854Z" fill="url(#paint0_linear_660_3866)"/>
<path d="M3.75 0C1.68187 0 0 1.68187 0 3.75C0 5.81812 1.68187 7.5 3.75 7.5C5.81812 7.5 7.5 5.81812 7.5 3.75C7.5 1.68187 5.81812 0 3.75 0Z" fill="url(#paint1_linear_660_3866)"/>
<path d="M36.25 32.5C34.1819 32.5 32.5 34.1819 32.5 36.25C32.5 38.3181 34.1819 40 36.25 40C38.3181 40 40 38.3181 40 36.25C40 34.1819 38.3181 32.5 36.25 32.5Z" fill="url(#paint2_linear_660_3866)"/>
<path d="M37.1336 2.86631C33.9067 -0.361819 26.5054 4.12381 22.9923 6.58068C24.0267 6.81131 25.0192 7.15568 25.9517 7.60568C30.9067 4.42068 34.3761 3.64568 35.3661 4.63381C36.0204 5.28818 36.0348 7.46881 33.9217 11.4607C31.8529 15.3676 28.3711 19.8619 24.1167 24.1169C14.7379 33.4963 6.31481 37.0438 4.63356 35.3663C3.64543 34.3776 4.42043 30.9076 7.60543 25.9519C7.15543 25.0194 6.81106 24.0269 6.58043 22.9932C4.12481 26.5063 -0.359568 33.9069 2.86606 37.1338C3.64356 37.9113 4.69481 38.2651 5.94856 38.2651C10.9254 38.2651 19.0836 32.6863 25.8842 25.8844C30.3104 21.4588 33.9498 16.7513 36.1317 12.6301C38.5692 8.02443 38.9161 4.64818 37.1336 2.86631Z" fill="url(#paint3_linear_660_3866)"/>
<path d="M11.25 20C10.56 20 10 19.44 10 18.75C10 13.925 13.925 10 18.75 10C19.44 10 20 10.56 20 11.25C20 11.94 19.44 12.5 18.75 12.5C15.3038 12.5 12.5 15.3038 12.5 18.75C12.5 19.44 11.94 20 11.25 20ZM24.6325 13.3825C24.87 13.1513 25.0012 12.8256 25.0012 12.5013C25.0012 12.17 24.87 11.8512 24.6325 11.62C24.1762 11.1575 23.3325 11.1512 22.8638 11.62C22.6325 11.8512 22.5012 12.1763 22.5012 12.5013C22.5012 12.8263 22.6325 13.1513 22.87 13.3888C23.1012 13.62 23.4262 13.7513 23.7512 13.7513C24.0756 13.7513 24.4012 13.62 24.6325 13.3825Z" fill="url(#paint4_linear_660_3866)"/>
</g>
<defs>
<linearGradient id="paint0_linear_660_3866" x1="10.2804" y1="29.7167" x2="29.7167" y2="10.2804" gradientUnits="userSpaceOnUse">
<stop stop-color="#FF6A59"/>
<stop offset="1" stop-color="#FFA677"/>
</linearGradient>
<linearGradient id="paint1_linear_660_3866" x1="1.1" y1="6.40125" x2="6.40063" y2="1.10062" gradientUnits="userSpaceOnUse">
<stop stop-color="#FA9D74"/>
<stop offset="1" stop-color="#FADF9B"/>
</linearGradient>
<linearGradient id="paint2_linear_660_3866" x1="33.6" y1="38.9012" x2="38.9006" y2="33.6006" gradientUnits="userSpaceOnUse">
<stop stop-color="#7055C2"/>
<stop offset="1" stop-color="#D055C2"/>
</linearGradient>
<linearGradient id="paint3_linear_660_3866" x1="3.20168" y1="37.4694" x2="37.4692" y2="3.20193" gradientUnits="userSpaceOnUse">
<stop stop-color="#3C3C3C"/>
<stop offset="1" stop-color="#666666"/>
</linearGradient>
<linearGradient id="paint4_linear_660_3866" x1="11.1531" y1="20.4206" x2="22.2931" y2="9.28" gradientUnits="userSpaceOnUse">
<stop stop-color="#FA9D74"/>
<stop offset="1" stop-color="#FADF9B"/>
</linearGradient>
<clipPath id="clip0_660_3866">
<rect width="40" height="40" fill="white"/>
</clipPath>
</defs>
</svg>
