<svg width="15" height="15" viewBox="0 0 15 15" fill="none" xmlns="http://www.w3.org/2000/svg">
<mask id="path-1-outside-1_1_350" maskUnits="userSpaceOnUse" x="-1" y="-0.626831" width="17" height="16" fill="black">
<rect fill="white" x="-1" y="-0.626831" width="17" height="16"/>
<path d="M6.57617 1.4552C6.88086 0.845825 7.74414 0.871216 8.02344 1.4552L9.69922 4.83215L13.4062 5.36536C14.0664 5.46692 14.3203 6.27942 13.8379 6.76184L11.1719 9.37708L11.8066 13.0587C11.9082 13.7189 11.1973 14.2267 10.6133 13.922L7.3125 12.17L3.98633 13.922C3.40234 14.2267 2.69141 13.7189 2.79297 13.0587L3.42773 9.37708L0.761719 6.76184C0.279297 6.27942 0.533203 5.46692 1.19336 5.36536L4.92578 4.83215L6.57617 1.4552Z"/>
</mask>
<path d="M6.57617 1.4552L5.68171 1.00797L5.67773 1.01611L6.57617 1.4552ZM8.02344 1.4552L7.1213 1.88666L7.12444 1.89321L7.12767 1.89972L8.02344 1.4552ZM9.69922 4.83215L8.80345 5.27667L9.03694 5.74718L9.55685 5.82197L9.69922 4.83215ZM13.4062 5.36536L13.5583 4.37694L13.5486 4.37554L13.4062 5.36536ZM13.8379 6.76184L14.5382 7.47575L14.545 7.46895L13.8379 6.76184ZM11.1719 9.37708L10.4716 8.6632L10.0973 9.03034L10.1864 9.54698L11.1719 9.37708ZM11.8066 13.0587L12.795 12.9067L12.7936 12.8977L12.7921 12.8888L11.8066 13.0587ZM10.6133 13.922L10.1444 14.8053L10.1507 14.8086L10.6133 13.922ZM7.3125 12.17L7.78132 11.2868L7.31429 11.0389L6.84648 11.2853L7.3125 12.17ZM3.98633 13.922L4.4489 14.8086L4.45235 14.8068L3.98633 13.922ZM2.79297 13.0587L1.80751 12.8888L1.80597 12.8977L1.8046 12.9067L2.79297 13.0587ZM3.42773 9.37708L4.41319 9.54698L4.50227 9.03034L4.12801 8.6632L3.42773 9.37708ZM0.761719 6.76184L0.0545793 7.46898L0.0614434 7.47571L0.761719 6.76184ZM1.19336 5.36536L1.05193 4.37535L1.0413 4.37698L1.19336 5.36536ZM4.92578 4.83215L5.0672 5.8221L5.59162 5.74719L5.82422 5.27124L4.92578 4.83215ZM7.4706 1.90241C7.4583 1.92701 7.43163 1.95883 7.39261 1.98142C7.35762 2.00168 7.32455 2.00792 7.29834 2.00763C7.25005 2.0071 7.16427 1.97649 7.1213 1.88666L8.92557 1.02374C8.29014 -0.304875 6.36159 -0.3517 5.68174 1.00799L7.4706 1.90241ZM7.12767 1.89972L8.80345 5.27667L10.595 4.38764L8.91921 1.01068L7.12767 1.89972ZM9.55685 5.82197L13.2639 6.35517L13.5486 4.37554L9.84159 3.84234L9.55685 5.82197ZM13.2542 6.35373C13.2251 6.34925 13.1859 6.33311 13.1518 6.30253C13.1208 6.27468 13.1037 6.24377 13.0955 6.21718C13.0872 6.19054 13.0853 6.16038 13.0926 6.12877C13.1007 6.09372 13.1178 6.06768 13.1308 6.05473L14.545 7.46895C15.5743 6.43969 15.0729 4.61 13.5583 4.37698L13.2542 6.35373ZM13.1376 6.04797L10.4716 8.6632L11.8722 10.0909L14.5382 7.47571L13.1376 6.04797ZM10.1864 9.54698L10.8212 13.2286L12.7921 12.8888L12.1573 9.20717L10.1864 9.54698ZM10.8183 13.2108C10.8132 13.1777 10.8184 13.1373 10.8343 13.1022C10.8484 13.071 10.8669 13.052 10.8827 13.0406C10.8985 13.0293 10.9229 13.0173 10.9585 13.0137C10.9985 13.0096 11.0418 13.0176 11.0758 13.0354L10.1507 14.8086C11.4684 15.4961 13.0199 14.3687 12.795 12.9067L10.8183 13.2108ZM11.0821 13.0387L7.78132 11.2868L6.84368 13.0533L10.1445 14.8053L11.0821 13.0387ZM6.84648 11.2853L3.5203 13.0372L4.45235 14.8068L7.77852 13.0548L6.84648 11.2853ZM3.52376 13.0354C3.55785 13.0176 3.60112 13.0096 3.64111 13.0137C3.67668 13.0173 3.70115 13.0293 3.71687 13.0406C3.73267 13.052 3.75117 13.071 3.76528 13.1022C3.78122 13.1373 3.78643 13.1777 3.78134 13.2108L1.8046 12.9067C1.57966 14.3687 3.13121 15.4961 4.44889 14.8086L3.52376 13.0354ZM3.77843 13.2286L4.41319 9.54698L2.44227 9.20717L1.80751 12.8888L3.77843 13.2286ZM4.12801 8.6632L1.46199 6.04797L0.0614434 7.47571L2.72746 10.0909L4.12801 8.6632ZM1.46883 6.05473C1.48177 6.06768 1.4989 6.09372 1.50702 6.12877C1.51434 6.16038 1.5124 6.19054 1.50414 6.21718C1.49588 6.24377 1.47879 6.27468 1.44779 6.30253C1.41374 6.33311 1.3745 6.34925 1.34542 6.35373L1.0413 4.37698C-0.473307 4.61 -0.974642 6.43969 0.054612 7.46895L1.46883 6.05473ZM1.33478 6.35531L5.0672 5.8221L4.78436 3.8422L1.05194 4.37541L1.33478 6.35531ZM5.82422 5.27124L7.47462 1.89429L5.67773 1.01611L4.02734 4.39306L5.82422 5.27124Z" fill="#14B3E0" mask="url(#path-1-outside-1_1_350)"/>
</svg>
